#!OML:ASF F:\VICON\USERDATA\INSTALL\rory3\rory3.ASF
:FULLY-SPECIFIED
:DEGREES
100
root 0.359947 18.8592 22.0734 6.22423 -0.396736 4.11982
lowerback 14.8466 -3.72888 -6.19101
upperback -0.49739 -6.11062 -0.871205
thorax -8.31134 -2.70028 3.84493
lowerneck -5.04915 1.55168 -1.00409
upperneck -10.8119 2.17567 1.26837
head -2.58669 1.07833 0.557515
rclavicle -8.05078e-015 -3.18055e-015
rhumerus -62.6117 1.69648 -76.532
rradius 70.3998
rwrist -2.71624
rhand -36.9296 25.8138
rfingers 7.12502
rthumb -10.0067 -3.92828
lclavicle -8.05078e-015 -3.18055e-015
lhumerus -25.8441 -21.6391 89.3785
lradius 122.267
lwrist 27.8319
lhand -43.2776 20.7986
lfingers 7.12502
lthumb -16.1257 50.1477
rfemur -40.3857 8.44484 12.0324
rtibia 33.3408
rfoot 8.70768 -5.52609
rtoes -7.24234
lfemur 29.229 -5.87322 -31.8591
ltibia 16.5475
lfoot 33.715 3.7112
ltoes -6.11109
101
root 0.371447 18.8557 22.6286 6.15875 -0.128491 4.2842
lowerback 15.1264 -3.89983 -5.80611
upperback -0.669663 -6.30954 -0.97368
thorax -8.69055 -2.79403 3.59723
lowerneck -4.7184 1.59138 -1.20893
upperneck -11.1483 2.24708 1.42528
head -2.76555 1.11567 0.639459
rclavicle 6.86801e-014 1.63003e-014
rhumerus -62.5711 1.64707 -76.4666
rradius 70.6234
rwrist -2.72724
rhand -41.8377 9.41301
rfingers 7.12502
rthumb -14.7388 -20.043
lclavicle 6.86801e-014 1.63003e-014
lhumerus -27.2309 -21.9763 89.6785
lradius 121.443
lwrist 26.7039
lhand -41.1606 17.7963
lfingers 7.12502
lthumb -14.0864 47.2989
rfemur -38.8961 9.20209 11.3358
rtibia 29.2261
rfoot 7.56636 -8.95647
rtoes -6.79976
lfemur 28.2241 -6.55586 -32.5422
ltibia 21.3824
lfoot 33.0603 3.26071
ltoes -7.06795
102
root 0.382979 18.8418 23.1897 6.08605 -0.0549825 4.24179
lowerback 13.5271 -3.97132 -5.68924
upperback 0.329535 -6.20852 -0.875673
thorax -6.71508 -2.85707 3.41912
lowerneck -4.93725 1.57695 -1.2755
upperneck -12.1913 2.21428 1.16702
head -3.07955 1.10685 0.568697
rclavicle -5.42682e-014 7.95139e-015
rhumerus -60.654 1.2442 -76.2785
rradius 70.6949
rwrist -2.94958
rhand -37.9442 23.2973
rfingers 7.12502
rthumb -10.9854 -6.39531
lclavicle -5.42682e-014 7.95139e-015
lhumerus -26.8418 -22.3991 89.5862
lradius 120.734
lwrist 26.2819
lhand -44.3409 23.3396
lfingers 7.12502
lthumb -17.1494 52.6027
rfemur -37.5445 9.88195 11.0804
rtibia 25.9965
rfoot 6.28734 -12.4958
rtoes -6.17248
lfemur 27.0474 -6.21803 -32.5399
ltibia 26.2469
lfoot 33.145 2.01852
ltoes -7.66237
103
root 0.392471 18.8005 23.7444 6.01967 -0.362065 4.58162
lowerback 12.6881 -3.89436 -5.84307
upperback 0.778285 -6.055 -0.986025
thorax -5.77758 -2.82772 3.26464
lowerneck -5.0828 1.64023 -1.24843
upperneck -12.5413 2.27589 0.889813
head -3.17043 1.14422 0.474013
rclavicle 2.89232e-014 8.74653e-015
rhumerus -59.4797 0.960416 -76.0234
rradius 70.534
rwrist -2.83527
rhand -37.4976 24.4535
rfingers 7.12502
rthumb -10.5546 -5.26144
lclavicle 2.89232e-014 8.74653e-015
lhumerus -27.5129 -22.7378 89.7503
lradius 120.635
lwrist 26.2772
lhand -44.6376 33.4044
lfingers 7.12502
lthumb -17.4349 62.6425
rfemur -36.3981 8.77667 11.3974
rtibia 23.5506
rfoot 5.60129 -13.463
rtoes -4.57679
lfemur 25.6763 -5.36649 -32.8412
ltibia 31.3768
lfoot 33.2906 0.965172
ltoes -7.63691
104
root 0.403475 18.7361 24.2836 5.78041 -0.882742 4.60529
lowerback 12.7973 -3.71704 -5.71964
upperback 0.807492 -5.80828 -0.970572
thorax -5.84033 -2.70793 3.18271
lowerneck -4.77563 1.72188 -1.54836
upperneck -12.7596 2.38473 0.837646
head -3.30765 1.21288 0.504023
rclavicle 2.41523e-014 2.74323e-014
rhumerus -58.9094 1.1099 -76.0631
rradius 70.9256
rwrist -3.38946
rhand -36.9897 26.3207
rfingers 7.12502
rthumb -10.0647 -3.41865
lclavicle 2.41523e-014 2.74323e-014
lhumerus -28.0377 -20.4382 88.9977
lradius 116.202
lwrist 19.5342
lhand -34.0723 5.94866
lfingers 7.12502
lthumb -7.24933 35.8045
rfemur -35.279 7.97767 12.1199
rtibia 21.675
rfoot 5.31362 -14.1283
rtoes -5.6926
lfemur 24.3805 -4.23215 -32.8377
ltibia 36.7893
lfoot 33.3005 0.235338
ltoes -9.89707
105
root 0.413842 18.6697 24.8199 5.6035 -1.37979 4.05857
lowerback 12.97 -3.57733 -5.08712
upperback 0.751087 -5.53288 -0.758346
thorax -6.05864 -2.57838 3.02939
lowerneck -4.11317 1.71335 -1.83141
upperneck -13.1761 2.35335 0.687865
head -3.57738 1.2144 0.497979
rclavicle -9.44227e-015 8.34896e-015
rhumerus -58.2122 1.26645 -75.7444
rradius 70.7569
rwrist -3.45002
rhand -34.8839 31.0588
rfingers 7.12502
rthumb -8.03275 1.23142
lclavicle -9.44227e-015 8.34896e-015
lhumerus -29.507 -20.3737 89.5816
lradius 115.059
lwrist 19.3465
lhand -33.6839 5.8347
lfingers 7.12502
lthumb -6.87441 35.7031
rfemur -34.1439 7.27241 13.4926
rtibia 20.2599
rfoot 5.22645 -14.5521
rtoes -5.27389
lfemur 22.9461 -3.04401 -32.1259
ltibia 42.4306
lfoot 33.2521 0.291767
ltoes -12.2311
106
root 0.424626 18.6063 25.3619 5.51551 -1.72265 3.44729
lowerback 12.842 -3.46114 -4.32151
upperback 0.765883 -5.24801 -0.55982
thorax -6.04364 -2.45882 2.75676
lowerneck -3.86733 1.68921 -1.76682
upperneck -13.1366 2.27419 0.270448
head -3.59982 1.18638 0.349585
rclavicle -5.74985e-014 -1.98785e-015
rhumerus -57.5018 1.72853 -75.9226
rradius 71.3651
rwrist -4.1958
rhand -34.9378 30.789
rfingers 7.12502
rthumb -8.08476 0.963672
lclavicle -5.74985e-014 -1.98785e-015
lhumerus -30.7882 -20.4285 90.0446
lradius 113.747
lwrist 19.2691
lhand -33.336 6.02827
lfingers 7.12502
lthumb -6.53858 35.9073
rfemur -32.7937 6.26109 15.0972
rtibia 19.0075
rfoot 6.13145 -14.3457
rtoes -7.365
lfemur 21.229 -2.14596 -31.3464
ltibia 48.2206
lfoot 32.9843 1.07074
ltoes -9.75744
107
root 0.431472 18.5355 25.9056 5.24955 -1.74498 2.90805
lowerback 12.8284 -3.39584 -3.59002
upperback 0.868643 -5.04126 -0.389199
thorax -5.98846 -2.37839 2.49012
lowerneck -3.77826 1.67954 -1.74138
upperneck -12.8676 2.22968 -0.0473455
head -3.51548 1.17379 0.242446
rclavicle -2.45002e-014 -6.36111e-015
rhumerus -56.7117 1.89921 -75.8478
rradius 71.8073
rwrist -3.89932
rhand -33.4297 30.1228
rfingers 7.12502
rthumb -6.62905 0.246606
lclavicle -2.45002e-014 -6.36111e-015
lhumerus -31.9847 -20.4722 90.5168
lradius 112.395
lwrist 19.1151
lhand -32.7293 7.3363
lfingers 7.12502
lthumb -5.95283 37.2327
rfemur -30.9332 4.93901 16.693
rtibia 17.8156
rfoot 7.19449 -13.3336
rtoes -10.342
lfemur 19.485 -1.51542 -30.525
ltibia 54.1717
lfoot 32.1832 1.55875
ltoes -7.70538
108
root 0.432688 18.4397 26.438 4.69837 -2.63236 2.06273
lowerback 13.1374 -3.0531 -2.88108
upperback 1.16364 -4.47363 -0.163332
thorax -5.91819 -2.12084 2.24586
lowerneck -3.81209 1.71055 -1.70263
upperneck -12.7569 2.24496 -0.331776
head -3.46562 1.18916 0.143547
rclavicle -5.27773e-014 -3.97569e-016
rhumerus -55.5507 2.20589 -75.8994
rradius 72.4028
rwrist -3.66348
rhand -30.7549 29.8118
rfingers 7.12502
rthumb -4.04643 -0.129549
lclavicle -5.27773e-014 -3.97569e-016
lhumerus -32.964 -20.2638 90.8336
lradius 110.959
lwrist 18.9156
lhand -32.6215 8.22675
lfingers 7.12502
lthumb -5.84883 38.126
rfemur -28.9453 4.47658 18.4918
rtibia 17.0148
rfoot 7.74697 -11.7831
rtoes -13.0034
lfemur 17.9827 0.166661 -29.2467
ltibia 60.1108
lfoot 30.9808 1.95586
ltoes -8.68475
109
root 0.426613 18.3198 26.964 4.24292 -3.59779 1.27575
lowerback 13.4018 -2.68192 -2.31995
upperback 1.39749 -3.89072 0.0319957
thorax -5.87169 -1.85012 2.04388
lowerneck -3.90339 1.74276 -1.64191
upperneck -12.534 2.27896 -0.468054
head -3.36797 1.20711 0.0903813
rclavicle 5.26779e-015 -1.59028e-015
rhumerus -54.4778 2.85798 -76.1914
rradius 73.5298
rwrist -3.83754
rhand -33.8794 30.4665
rfingers 7.12502
rthumb -7.06313 0.604385
lclavicle 5.26779e-015 -1.59028e-015
lhumerus -34.2578 -19.6929 91.0627
lradius 109.741
lwrist 18.9867
lhand -32.0553 8.3109
lfingers 7.12502
lthumb -5.30215 38.2246
rfemur -27.4587 4.03167 20.1743
rtibia 17.2537
rfoot 8.8188 -9.71848
rtoes -8.81743
lfemur 16.416 2.20477 -27.6205
ltibia 65.9936
lfoot 29.821 2.26614
ltoes -9.71997
110
root 0.420351 18.1868 27.4894 3.83114 -4.64119 0.486411
lowerback 13.881 -2.32298 -1.80029
upperback 1.3934 -3.33475 0.248212
thorax -6.18437 -1.58208 1.90632
lowerneck -3.73506 1.77166 -1.64294
upperneck -12.1773 2.31831 -0.474008
head -3.27463 1.22577 0.0885586
rclavicle 3.67255e-014 -1.37161e-014
rhumerus -53.4799 3.68324 -76.4623
rradius 74.6421
rwrist -3.57619
rhand -35.356 30.1605
rfingers 7.12502
rthumb -8.48834 0.351112
lclavicle 3.67255e-014 -1.37161e-014
lhumerus -36.0658 -18.7598 91.3784
lradius 108.605
lwrist 18.8978
lhand -31.3734 8.68531
lfingers 7.12502
lthumb -4.64369 38.6144
rfemur -26.4698 3.59765 21.7716
rtibia 18.7533
rfoot 9.72981 -5.761
rtoes 0.238221
lfemur 14.9054 4.41561 -25.7428
ltibia 71.7189
lfoot 28.647 2.35747
ltoes -10.0459
